<svg width="106" height="106" viewBox="0 0 106 106" fill="none" xmlns="http://www.w3.org/2000/svg">
<circle cx="53.3213" cy="52.5459" r="52.4917" fill="#1363FD"/>
<path d="M23.545 72.9142V35.8233H31.387V66.4487H47.2883V72.9142H23.545ZM83.7634 48.8088H75.8309C75.686 47.7825 75.3902 46.8709 74.9434 46.074C74.4967 45.2651 73.9232 44.5769 73.2229 44.0094C72.5226 43.4419 71.7137 43.0073 70.7961 42.7054C69.8905 42.4036 68.9065 42.2527 67.844 42.2527C65.9243 42.2527 64.252 42.7296 62.8273 43.6834C61.4026 44.6252 60.2979 46.0016 59.5131 47.8127C58.7282 49.6117 58.3358 51.797 58.3358 54.3688C58.3358 57.013 58.7282 59.2345 59.5131 61.0336C60.3099 62.8326 61.4207 64.1909 62.8454 65.1085C64.2702 66.0261 65.9182 66.4849 67.7897 66.4849C68.8401 66.4849 69.8121 66.3461 70.7055 66.0684C71.6111 65.7907 72.414 65.3862 73.1143 64.8549C73.8145 64.3116 74.3941 63.6536 74.8529 62.8809C75.3238 62.1081 75.6498 61.2267 75.8309 60.2367L83.7634 60.2729C83.5582 61.9753 83.045 63.6174 82.224 65.199C81.415 66.7686 80.3224 68.1752 78.9459 69.4189C77.5816 70.6504 75.9516 71.6284 74.056 72.3528C72.1725 73.0652 70.0415 73.4213 67.6629 73.4213C64.3547 73.4213 61.3966 72.6728 58.7886 71.1756C56.1927 69.6784 54.1402 67.5112 52.6309 64.6738C51.1338 61.8365 50.3852 58.4015 50.3852 54.3688C50.3852 50.324 51.1459 46.883 52.6672 44.0456C54.1885 41.2083 56.2531 39.047 58.8611 37.562C61.469 36.0648 64.403 35.3162 67.6629 35.3162C69.8121 35.3162 71.8042 35.6181 73.6395 36.2218C75.4868 36.8255 77.1228 37.7069 78.5475 38.8659C79.9722 40.013 81.1313 41.4196 82.0248 43.0858C82.9303 44.7519 83.5099 46.6596 83.7634 48.8088Z" fill="white"/>
</svg>
